<?xml version="1.0" encoding="utf-8"?>
<!-- Generator: Adobe Illustrator 19.1.0, SVG Export Plug-In . SVG Version: 6.00 Build 0)  -->
<svg version="1.1" id="Layer_1" xmlns="http://www.w3.org/2000/svg" xmlns:xlink="http://www.w3.org/1999/xlink" x="0px" y="0px"
	 viewBox="0 0 411 225" style="enable-background:new 0 0 411 225;" xml:space="preserve">
<style type="text/css">
	.st0{fill:#333333;}
	.st1{fill:#0071BC;}
	.st2{fill:#0075A8;}
	.st3{fill:none;stroke:#333333;stroke-width:5;stroke-miterlimit:10;}
	.st4{fill:none;stroke:#0075A8;stroke-width:3;stroke-miterlimit:10;}
	.st5{enable-background:new    ;}
	.st6{clip-path:url(#SVGID_2_);enable-background:new    ;}
	.st7{fill:#717066;}
	.st8{fill:#76746A;}
	.st9{fill:#7A786E;}
	.st10{fill:#7E7D72;}
	.st11{fill:#838176;}
	.st12{fill:#87857A;}
	.st13{fill:#8C8A7E;}
	.st14{fill:#908E82;}
	.st15{fill:#949286;}
	.st16{fill:#99978A;}
	.st17{fill:#9D9B8E;}
	.st18{fill:#A19F92;}
	.st19{fill:#A6A396;}
	.st20{fill:#AAA89A;}
	.st21{fill:#AEAC9E;}
	.st22{fill:#B3B0A2;}
	.st23{fill:#B7B5A5;}
	.st24{fill:#BBB9A9;}
	.st25{fill:#C0BDAD;}
	.st26{fill:#C4C2B1;}
	.st27{fill:#C9C6B5;}
	.st28{fill:#CDCAB9;}
	.st29{fill:#D1CEBD;}
	.st30{fill:#D6D3C1;}
	.st31{fill:#DAD7C5;}
	.st32{fill:#DEDCCC;}
	.st33{fill:#E0DECF;}
	.st34{fill:#E2DFD1;}
	.st35{fill:#E3E1D3;}
	.st36{fill:#E4E2D5;}
	.st37{fill:#E5E3D6;}
	.st38{fill:#E6E4D7;}
	.st39{fill:#E7E5D9;}
	.st40{fill:#E7E5DA;}
	.st41{fill:#E8E6DB;}
	.st42{fill:#E9E7DC;}
	.st43{fill:#E9E8DD;}
	.st44{fill:#EAE8DE;}
	.st45{fill:#EBE9DF;}
	.st46{clip-path:url(#SVGID_4_);enable-background:new    ;}
	.st47{fill:#6F6D64;}
	.st48{clip-path:url(#SVGID_6_);enable-background:new    ;}
	.st49{clip-path:url(#SVGID_8_);enable-background:new    ;}
	.st50{fill:#FFFFFF;}
	.st51{fill:none;stroke:#333333;stroke-width:5;stroke-miterlimit:10;stroke-dasharray:8,4,8,4,8,4;}
	.st52{fill:#FFFFFF;stroke:#333333;stroke-width:5;stroke-miterlimit:10;}
	.st53{fill:#F2F2F2;}
	.st54{fill:none;stroke:#333333;stroke-width:5;stroke-miterlimit:10;stroke-dasharray:8,8,8,8,8,4;}
	.st55{fill:none;stroke:#333333;stroke-width:5.2767;stroke-miterlimit:10;}
	.st56{fill:none;stroke:#333333;stroke-width:10;stroke-miterlimit:10;}
	.st57{fill:none;stroke:#333333;stroke-width:5.8604;stroke-miterlimit:10;}
</style>
<g>
	<g>
		<path class="st0" d="M50.3,193.9c0.3,0,0.6,0.1,0.9,0.2c0.3,0.1,0.6,0.3,0.8,0.6l4.8,5.1c-2.1,2.8-4.8,4.8-7.9,6.2
			c-3.2,1.4-6.9,2.1-11.3,2.1c-4,0-7.6-0.7-10.7-2c-3.2-1.4-5.8-3.2-8-5.6c-2.2-2.4-3.9-5.2-5.1-8.5c-1.2-3.3-1.8-6.8-1.8-10.7
			c0-3.9,0.6-7.5,1.9-10.8c1.3-3.3,3.1-6.1,5.4-8.5c2.3-2.4,5.1-4.2,8.3-5.5c3.2-1.3,6.8-2,10.6-2c2,0,3.8,0.2,5.6,0.5
			s3.4,0.8,4.9,1.4c1.5,0.6,2.9,1.4,4.2,2.2c1.3,0.9,2.4,1.8,3.4,2.8l-4.1,5.5c-0.3,0.3-0.6,0.6-0.9,0.9c-0.4,0.3-0.9,0.4-1.5,0.4
			c-0.4,0-0.8-0.1-1.2-0.3c-0.4-0.2-0.8-0.4-1.2-0.7c-0.4-0.3-0.9-0.6-1.4-0.9c-0.5-0.3-1.1-0.6-1.8-0.9c-0.7-0.3-1.5-0.5-2.5-0.7
			c-0.9-0.2-2.1-0.3-3.3-0.3c-2,0-3.9,0.4-5.5,1.1c-1.7,0.7-3.1,1.8-4.3,3.3c-1.2,1.4-2.1,3.2-2.8,5.3c-0.7,2.1-1,4.4-1,7.1
			c0,2.7,0.4,5.1,1.1,7.2s1.7,3.8,3,5.3s2.7,2.5,4.4,3.3c1.7,0.7,3.5,1.1,5.4,1.1c1.1,0,2.1-0.1,3-0.2c0.9-0.1,1.8-0.3,2.6-0.5
			s1.5-0.6,2.2-1s1.4-1,2.1-1.6c0.3-0.2,0.6-0.4,0.9-0.6S50,193.9,50.3,193.9z"/>
		<path class="st0" d="M119.6,181.2c0,3.8-0.7,7.3-2,10.6c-1.3,3.3-3.2,6.1-5.5,8.5c-2.4,2.4-5.2,4.3-8.6,5.7
			c-3.3,1.4-7.1,2.1-11.1,2.1s-7.8-0.7-11.2-2.1c-3.4-1.4-6.2-3.3-8.6-5.7c-2.4-2.4-4.2-5.2-5.5-8.5c-1.3-3.3-2-6.8-2-10.6
			c0-3.8,0.7-7.3,2-10.6c1.3-3.3,3.2-6.1,5.5-8.5c2.4-2.4,5.3-4.3,8.6-5.7c3.4-1.4,7.1-2.1,11.2-2.1s7.8,0.7,11.1,2.1
			c3.3,1.4,6.2,3.3,8.6,5.7c2.4,2.4,4.2,5.2,5.5,8.5C119,173.9,119.6,177.4,119.6,181.2z M107.2,181.2c0-2.6-0.3-4.9-1-7
			c-0.7-2.1-1.6-3.8-2.9-5.3c-1.3-1.4-2.8-2.5-4.6-3.3c-1.8-0.8-3.9-1.2-6.2-1.2c-2.4,0-4.4,0.4-6.3,1.2c-1.8,0.8-3.4,1.9-4.6,3.3
			c-1.3,1.4-2.2,3.2-2.9,5.3c-0.7,2.1-1,4.4-1,7c0,2.6,0.3,5,1,7c0.7,2.1,1.6,3.8,2.9,5.3c1.3,1.4,2.8,2.5,4.6,3.3s3.9,1.1,6.3,1.1
			c2.3,0,4.4-0.4,6.2-1.1s3.4-1.9,4.6-3.3c1.3-1.4,2.2-3.2,2.9-5.3C106.8,186.1,107.2,183.8,107.2,181.2z"/>
		<path class="st0" d="M204.1,155l-16.2,52.5h-11l-9.9-32.5c-0.2-0.5-0.4-1.1-0.5-1.7c-0.2-0.6-0.3-1.3-0.5-1.9
			c-0.2,0.7-0.3,1.3-0.5,1.9c-0.2,0.6-0.3,1.2-0.5,1.7l-10,32.5h-11L127.7,155h10.2c1.1,0,1.9,0.2,2.6,0.7c0.7,0.5,1.2,1.1,1.4,1.9
			l7.2,27.4c0.2,0.9,0.4,1.8,0.6,2.8s0.4,2.1,0.6,3.2c0.4-2.3,1-4.3,1.6-6l8.5-27.4c0.2-0.7,0.7-1.3,1.4-1.8
			c0.7-0.5,1.6-0.8,2.6-0.8h3.6c1.1,0,1.9,0.2,2.6,0.7s1.1,1.1,1.5,1.9l8.4,27.4c0.6,1.7,1.2,3.6,1.6,5.7c0.2-1.1,0.4-2.1,0.6-3
			c0.2-0.9,0.4-1.8,0.6-2.7l7.2-27.4c0.2-0.7,0.6-1.3,1.4-1.8c0.7-0.5,1.6-0.8,2.6-0.8H204.1z"/>
		<path class="st0" d="M235.8,155c3.6,0,6.7,0.3,9.3,1c2.5,0.7,4.6,1.6,6.2,2.8c1.6,1.2,2.8,2.7,3.5,4.5s1.1,3.7,1.1,5.9
			c0,1.2-0.2,2.3-0.5,3.4c-0.3,1.1-0.9,2.1-1.6,3.1c-0.7,0.9-1.6,1.8-2.8,2.6c-1.1,0.8-2.5,1.5-4.1,2.1c3.5,0.8,6,2.2,7.7,4.1
			c1.7,1.9,2.5,4.3,2.5,7.3c0,2.2-0.4,4.3-1.3,6.2c-0.9,1.9-2.1,3.6-3.8,5c-1.7,1.4-3.7,2.5-6.2,3.3c-2.4,0.8-5.2,1.2-8.4,1.2h-21
			V155H235.8z M228.7,164.1v13h6.3c1.3,0,2.6-0.1,3.6-0.3s2-0.5,2.8-1s1.3-1.1,1.7-2c0.4-0.8,0.6-1.9,0.6-3.2c0-1.2-0.2-2.3-0.5-3.1
			c-0.3-0.8-0.8-1.5-1.4-2c-0.6-0.5-1.5-0.9-2.5-1.1c-1-0.2-2.2-0.3-3.5-0.3H228.7z M237.2,198.2c1.6,0,2.9-0.2,3.9-0.6
			c1-0.4,1.8-0.9,2.4-1.6s1-1.4,1.2-2.2c0.2-0.8,0.3-1.6,0.3-2.5c0-1-0.1-1.8-0.4-2.6c-0.3-0.8-0.7-1.4-1.3-1.9
			c-0.6-0.5-1.4-0.9-2.4-1.2c-1-0.3-2.3-0.4-3.8-0.4h-8.5v13.1H237.2z"/>
		<path class="st0" d="M284.2,164.3v12.2h16.5v9h-16.5v12.5h21.5v9.4h-33.8V155h33.8v9.4H284.2z"/>
		<path class="st0" d="M352,197.7v9.7h-31.6V155h12.2v42.7H352z"/>
		<path class="st0" d="M397,197.7v9.7h-31.6V155h12.2v42.7H397z"/>
	</g>
	<path class="st0" d="M160.1,41.6c-1-11.9,1.8-25.8,8.8-29.2l0.5-0.3l7.4,0c5,0.3,11.3,3.6,12.9,17.6l-5,0.8c-1-8.4-3.7-13-8.2-13
		h-5.9c-3.5,2-6.6,12-5.6,23.9L160.1,41.6z"/>
	<path class="st0" d="M181.2,32.1c4.8,0,10.2,1.3,12.6,2.8c3.8,2.3,42.8,63.3,42.8,63.3s3.2,4.7-1.5,7.9
		c-6.4,4.4-35.5,19.3-35.5,19.3s-2.9,1.5-9.1,1.8c-6.2,0.3-31,2.5-36,2.9c-0.9,0.1-2.1,0.2-3.3,0.2c-2.8,0-5.6-0.9-4.6-5.6
		c3.2-15.1,10-63.5,10-63.5s0.3-8.8,5.9-14.9c5.6-6.2,7.3-10.3,12-12.9C176.1,32.5,178.5,32.1,181.2,32.1 M181.2,27.1
		c-3.8,0-6.9,0.7-9.2,2c-3.9,2.2-6.2,5.1-8.7,8.4c-1.3,1.6-2.7,3.5-4.5,5.5c-6.1,6.8-7,16-7.1,17.8c-0.5,3.5-6.9,48.7-9.9,63
		c-0.7,3.4-0.2,6.2,1.5,8.4c1.7,2.1,4.4,3.2,8,3.2c1.2,0,2.2-0.1,3.1-0.2c0.2,0,0.5,0,0.7-0.1c1-0.1,3-0.3,5.4-0.5
		c9-0.8,25.7-2.2,30.5-2.5c6.9-0.3,10.4-2,11.1-2.3l0,0l0,0c1.2-0.6,29.4-15.2,36-19.7c3.5-2.4,5.2-6,4.6-10
		c-0.3-2.4-1.4-4.2-1.8-4.8c-0.5-0.8-10.1-15.8-20-30.8c-21-32-22.9-33.1-24.4-34C193,28.6,186.8,27.1,181.2,27.1L181.2,27.1z"/>
	<path class="st0" d="M151.9,128.1l-1.8-2.3c7.4-5.7,17.8-16,18.8-17.1c0.7-1,5.2-6.4,17.5-7c12.5-0.6,45.4-2.3,45.7-2.3l0.2,2.9
		c-0.3,0-33.3,1.8-45.7,2.3c-11.7,0.5-15.2,5.7-15.2,5.8l-0.1,0.1l-0.1,0.1C171,110.8,159.8,121.9,151.9,128.1z"/>
	
		<rect x="190.7" y="122.1" transform="matrix(0.2025 0.9793 -0.9793 0.2025 275.9696 -92.1125)" class="st0" width="7.6" height="2.5"/>
	<path class="st0" d="M181.6,122.5c-5.6,0-10.1-4.5-10.1-10.1c0-5.6,4.5-10.1,10.1-10.1s10.1,4.5,10.1,10.1
		C191.8,118,187.2,122.5,181.6,122.5z M181.6,105.2c-4,0-7.2,3.2-7.2,7.2c0,4,3.2,7.2,7.2,7.2s7.2-3.2,7.2-7.2
		C188.8,108.4,185.6,105.2,181.6,105.2z"/>
	<path class="st0" d="M181,117.8c-3,0-4.9-2.3-4.9-5.3h2.9c0,1,0.9,2.3,1.9,2.3V117.8z"/>
	
		<rect x="146.6" y="66.2" transform="matrix(4.078427e-02 0.9992 -0.9992 4.078427e-02 235.8249 -110.2268)" class="st0" width="57.5" height="2.9"/>
	<path class="st0" d="M181.4,29.5h-2.9c0-4.1-2.6-9.5-5.5-11.5c-1-0.7-2-0.9-2.9-0.5l-1.1-2.7c1.8-0.7,3.8-0.5,5.6,0.8
		C178.7,18.3,181.4,25,181.4,29.5z"/>
	<path class="st0" d="M166.8,34.7c-0.2-9.7,3-11.3,4.4-11.5c3.3-0.6,4.8,3,5.3,4.2c0,0.1,0.1,0.2,0.1,0.3c-0.2-0.4-0.8-0.8-1.5-0.7
		c-0.8,0.2-1.1,0.8-1.1,1.2l2.9,0c0,1.3-1,1.6-1.2,1.6c-1.2,0.2-1.7-0.9-1.9-1.3c-0.5-1.1-1.2-2.6-2.1-2.4c-1.1,0.2-2.1,4.2-2,8.6
		L166.8,34.7z"/>
</g>
<g>
	<g>
		<path class="st0" d="M212.9,70.9l-0.6-2.1c-0.2-0.7-0.5-1.2-0.7-1.2s-0.3,0.6-0.2,1.3l0.1,0.5c0.1,0.7-0.4,1.3-1.1,1.4l-0.5,0.1
			c0,0-0.1,0-0.1,0l0.2,1.5c0,0,0.1,0,0.1,0l2.1-0.2C212.7,72.1,213.1,71.5,212.9,70.9"/>
		<path class="st0" d="M207.8,69.6l-3.3,0.4c0,0-0.1,0-0.1,0l-3.4,0.4c0,0-0.1,0-0.1,0l0-0.3c-0.1-0.7-0.3-1.2-0.5-1.2
			s-0.4,0.6-0.5,1.3l-0.1,2.1c0,0.7,0.5,1.2,1.2,1.1l2.1-0.2c0.2,0,0.4-0.1,0.6-0.2c0,0.4-0.3,0.7-0.7,0.7l-2.9,0.3
			c-0.5,0.1-0.9-0.3-0.8-0.8l0.1-1.8c0-0.5-0.4-0.9-0.8-0.8l-14.4,1.5c-0.3,0-0.6,0.2-0.6,0.5l-2.3,4.4c0,0.1,0,0.2,0,0.2l0.6,0.6
			c0.1,0.1,0.2,0.1,0.3,0l1.7-1.7l0.9,8.8c0,0.4,0.4,0.7,0.8,0.7l4.1-0.4c0.4,0,0.7-0.4,0.7-0.8l-0.3-3.1c0-0.4,0.3-0.8,0.7-0.8
			l10.2-1.1c0.4,0,0.8,0.3,0.8,0.7l0.3,3.1c0,0.4,0.4,0.7,0.8,0.7l4.1-0.4c0.4,0,0.7-0.4,0.7-0.8l-0.4-3.3l-2.2,0.2
			c-0.7,0.1-1.3-0.4-1.4-1.1l-0.2-2.1c0-0.4,0.1-0.8,0.4-1l0.3,2.5c0.1,0.7,0.7,1.2,1.4,1.1l3.3-0.4c0.7-0.1,1.2-0.7,1.1-1.4
			l-0.7-6.4C209.1,70,208.4,69.6,207.8,69.6"/>
	</g>
</g>
</svg>
